<svg xmlns="http://www.w3.org/2000/svg" viewBox="0 0 24 24" width="64" height="64">
  <defs>
    <linearGradient id="gradMalagasy" x1="0%" y1="0%" x2="100%" y2="100%">
      <stop offset="0%" style="stop-color:#DC2626;stop-opacity:1" />
      <stop offset="50%" style="stop-color:#EA580C;stop-opacity:1" />
      <stop offset="100%" style="stop-color:#F59E0B;stop-opacity:1" />
    </linearGradient>
    <linearGradient id="gradLeaf" x1="0%" y1="0%" x2="0%" y2="100%">
      <stop offset="0%" style="stop-color:#10B981;stop-opacity:1" />
      <stop offset="100%" style="stop-color:#059669;stop-opacity:1" />
    </linearGradient>
    <radialGradient id="lensGrad" cx="50%" cy="50%" r="50%">
      <stop offset="0%" style="stop-color:#60A5FA;stop-opacity:0.9" />
      <stop offset="70%" style="stop-color:#3B82F6;stop-opacity:1" />
      <stop offset="100%" style="stop-color:#1E40AF;stop-opacity:1" />
    </radialGradient>
  </defs>
  
  <!-- Fond circulaire principal -->
  <circle cx="12" cy="12" r="11" fill="url(#gradMalagasy)"/>
  
  <!-- Feuilles de Ravenala stylisées (gauche) -->
  <path d="M7 12 Q5 10 4 8 L5 7.5 Q6 9.5 7.5 11.5 Z" fill="url(#gradLeaf)" opacity="0.85"/>
  <path d="M8 12 Q6.5 10.5 5.5 9 L6.3 8.7 Q7.2 10 8.3 11.5 Z" fill="url(#gradLeaf)" opacity="0.75"/>
  <path d="M9 12 Q8 11 7 9.5 L7.7 9.3 Q8.5 10.5 9.2 11.5 Z" fill="url(#gradLeaf)" opacity="0.65"/>
  
  <!-- Feuilles de Ravenala stylisées (droite) -->
  <path d="M17 12 Q19 10 20 8 L19 7.5 Q18 9.5 16.5 11.5 Z" fill="url(#gradLeaf)" opacity="0.85"/>
  <path d="M16 12 Q17.5 10.5 18.5 9 L17.7 8.7 Q16.8 10 15.7 11.5 Z" fill="url(#gradLeaf)" opacity="0.75"/>
  <path d="M15 12 Q16 11 17 9.5 L16.3 9.3 Q15.5 10.5 14.8 11.5 Z" fill="url(#gradLeaf)" opacity="0.65"/>
  
  <!-- Objectif photo central -->
  <circle cx="12" cy="13" r="5" fill="url(#lensGrad)"/>
  <circle cx="12" cy="13" r="4" fill="none" stroke="#fff" stroke-width="0.5" opacity="0.4"/>
  <circle cx="12" cy="13" r="3.2" fill="rgba(30, 58, 138, 0.3)"/>
  <circle cx="12" cy="13" r="2.5" fill="none" stroke="#fff" stroke-width="0.8" opacity="0.6"/>
  
  <!-- Diaphragme de l'objectif -->
  <g opacity="0.3">
    <path d="M12 10.5 L13.5 12 L12 13.5 L10.5 12 Z" fill="none" stroke="#fff" stroke-width="0.5"/>
    <path d="M14 13 L12 14.5 L10 13 L12 11.5 Z" fill="none" stroke="#fff" stroke-width="0.5"/>
  </g>
  
  <!-- Reflet lumineux sur l'objectif -->
  <ellipse cx="13.5" cy="11.8" rx="1.2" ry="0.9" fill="#fff" opacity="0.7"/>
  <circle cx="13.8" cy="11.5" r="0.4" fill="#fff" opacity="0.9"/>
  
  <!-- Motifs géométriques malgaches (coins) -->
  <path d="M3 4 L4 3 L4 4 Z" fill="#fff" opacity="0.3"/>
  <path d="M20 4 L21 3 L20 3 Z" fill="#fff" opacity="0.3"/>
  <path d="M3 20 L4 21 L4 20 Z" fill="#fff" opacity="0.3"/>
  <path d="M20 20 L21 21 L20 21 Z" fill="#fff" opacity="0.3"/>
  
  <!-- Étoiles décoratives subtiles -->
  <circle cx="5" cy="5" r="0.4" fill="#fff" opacity="0.6"/>
  <circle cx="19" cy="5" r="0.4" fill="#fff" opacity="0.6"/>
  <circle cx="12" cy="3" r="0.3" fill="#fff" opacity="0.5"/>
</svg>